<svg xmlns="http://www.w3.org/2000/svg" xmlns:xlink="http://www.w3.org/1999/xlink" version="1.1" id="Layer_1" x="0px" y="0px" viewBox="0 0 500 500" style="enable-background:new 0 0 500 500;" xml:space="preserve" width="125.28"  height="64" >
<g id="watermark_1_">
	<g>
		<g id="watermark" style="opacity:0.61;">
			<g>
				<g>
					<g>
						<g>
							<polygon style="fill:#FFFFFF;" points="213.765,461.172 208.204,474.017 205.268,474.017 199.726,461.172 202.938,461.172          206.846,470.347 210.81,461.172        "/>
						</g>
						<g>
							<path style="fill:#FFFFFF;" d="M223.507,469.741h-7.469c0.275,1.23,1.321,1.982,2.826,1.982c1.046,0,1.798-0.312,2.477-0.954         l1.523,1.651c-0.917,1.046-2.294,1.597-4.074,1.597c-3.413,0-5.634-2.147-5.634-5.083c0-2.954,2.257-5.083,5.267-5.083         c2.899,0,5.138,1.945,5.138,5.12C223.562,469.191,223.526,469.503,223.507,469.741 M216.002,468.071h4.863         c-0.202-1.248-1.138-2.055-2.422-2.055C217.139,466.016,216.204,466.805,216.002,468.071"/>
						</g>
						<g>
							<path style="fill:#FFFFFF;" d="M224.735,468.934c0-2.973,2.294-5.083,5.505-5.083c2.074,0,3.707,0.899,4.423,2.514         l-2.22,1.193c-0.532-0.936-1.321-1.358-2.221-1.358c-1.45,0-2.587,1.009-2.587,2.734c0,1.725,1.138,2.734,2.587,2.734         c0.899,0,1.688-0.404,2.221-1.358l2.22,1.211c-0.716,1.578-2.349,2.495-4.423,2.495         C227.029,474.017,224.735,471.907,224.735,468.934"/>
						</g>
						<g>
							<path style="fill:#FFFFFF;" d="M242.828,473.393c-0.587,0.422-1.45,0.624-2.331,0.624c-2.33,0-3.688-1.193-3.688-3.542         v-4.055h-1.523v-2.202h1.523v-2.404h2.863v2.404h2.459v2.202h-2.459v4.019c0,0.844,0.458,1.303,1.229,1.303         c0.422,0,0.844-0.128,1.156-0.367L242.828,473.393z"/>
						</g>
					</g>
					<g>
						<path style="fill:#FFFFFF;" d="M262.474,463.997v2.643c-0.238-0.018-0.422-0.037-0.642-0.037        c-1.578,0-2.624,0.862-2.624,2.753v4.661h-2.863v-9.873h2.734v1.303C259.776,464.493,260.951,463.997,262.474,463.997"/>
					</g>
					<g>
						<path style="fill:#FFFFFF;" d="M263.299,472.53l1.009-2.239c1.083,0.789,2.697,1.339,4.239,1.339        c1.762,0,2.477-0.587,2.477-1.376c0-2.404-7.469-0.752-7.469-5.524c0-2.184,1.762-4,5.413-4c1.615,0,3.267,0.385,4.459,1.138        l-0.918,2.257c-1.193-0.679-2.422-1.009-3.56-1.009c-1.761,0-2.44,0.66-2.44,1.468c0,2.367,7.468,0.734,7.468,5.45        c0,2.147-1.78,3.982-5.45,3.982C266.492,474.017,264.437,473.411,263.299,472.53"/>
					</g>
					<g>
						<path style="fill:#FFFFFF;" d="M285.428,469.741h-7.469c0.275,1.23,1.321,1.982,2.826,1.982c1.046,0,1.798-0.312,2.477-0.954        l1.523,1.651c-0.918,1.046-2.294,1.597-4.074,1.597c-3.413,0-5.634-2.147-5.634-5.083c0-2.954,2.257-5.083,5.267-5.083        c2.9,0,5.138,1.945,5.138,5.12C285.484,469.191,285.447,469.503,285.428,469.741 M277.923,468.071h4.863        c-0.202-1.248-1.138-2.055-2.422-2.055C279.061,466.016,278.125,466.805,277.923,468.071"/>
					</g>
					<g>
						<path style="fill:#FFFFFF;" d="M297.007,469.741h-7.469c0.275,1.23,1.321,1.982,2.826,1.982c1.046,0,1.798-0.312,2.477-0.954        l1.523,1.651c-0.918,1.046-2.294,1.597-4.074,1.597c-3.413,0-5.634-2.147-5.634-5.083c0-2.954,2.257-5.083,5.267-5.083        c2.899,0,5.138,1.945,5.138,5.12C297.062,469.191,297.025,469.503,297.007,469.741 M289.501,468.071h4.863        c-0.202-1.248-1.138-2.055-2.422-2.055C290.639,466.016,289.703,466.805,289.501,468.071"/>
					</g>
					<g>
						<polygon style="fill:#FFFFFF;" points="303.208,470.145 301.831,471.503 301.831,474.017 298.969,474.017 298.969,460.401         301.831,460.401 301.831,468.108 306.016,464.144 309.429,464.144 305.318,468.328 309.796,474.017 306.327,474.017       "/>
					</g>
					<g>
						<path style="fill:#FFFFFF;" d="M256.601,475.359L256.601,475.359l-2.86-2.86c-0.435,0.508-0.953,0.943-1.534,1.284        c-0.092,0.069-0.186,0.136-0.283,0.199l3.027,3.027c0.456,0.456,1.195,0.456,1.65,0        C257.057,476.554,257.057,475.815,256.601,475.359"/>
					</g>
					<g>
						<path style="fill:#FFFFFF;" d="M249.984,463.244c0.221-0.173,0.495-0.281,0.797-0.281c0.042,0,0.083,0.002,0.124,0.006        c-0.214-0.156-0.478-0.249-0.764-0.249c-0.395,0-0.744,0.18-0.981,0.458c-0.051,0-0.1,0.006-0.151,0.008        c0.039-0.077,0.064-0.162,0.064-0.255c0-0.234-0.143-0.434-0.346-0.519c0.087,0.126,0.138,0.279,0.138,0.445        c0,0.122-0.031,0.237-0.081,0.341c-2.811,0.201-5.03,2.539-5.03,5.4c0,2.993,2.426,5.42,5.42,5.42        c2.993,0,5.42-2.426,5.42-5.42C254.595,465.879,252.593,463.635,249.984,463.244 M247.983,464.656        c0.435,0,0.844,0.112,1.199,0.309c0.374-0.245,0.82-0.387,1.299-0.387c0.711,0,1.348,0.312,1.784,0.806        c-0.435-0.379-1.004-0.61-1.627-0.61c-0.449,0-0.87,0.12-1.234,0.329c-0.079,0.046-0.156,0.096-0.229,0.15        c-0.065-0.048-0.133-0.093-0.204-0.134c-0.369-0.219-0.8-0.344-1.26-0.344c-0.3,0-0.588,0.054-0.854,0.152        C247.196,464.754,247.578,464.656,247.983,464.656 M251.772,469.098c0.115,0.305,0.181,0.634,0.181,0.979        c0,1.534-1.244,2.777-2.778,2.777c-1.534,0-2.777-1.243-2.777-2.777c0-0.345,0.066-0.674,0.181-0.979        c-0.62-0.382-1.035-1.064-1.035-1.846c0-1.197,0.971-2.168,2.168-2.168c0.565,0,1.078,0.218,1.463,0.572        c0.386-0.354,0.899-0.572,1.464-0.572c1.197,0,2.168,0.971,2.168,2.168C252.807,468.034,252.392,468.716,251.772,469.098"/>
					</g>
					<g>
						<path style="fill:#FFFFFF;" d="M251.666,467.061c0,0.497-0.404,0.901-0.901,0.901c-0.497,0-0.901-0.404-0.901-0.901        s0.404-0.901,0.901-0.901c0.101,0,0.197,0.017,0.287,0.047c-0.03,0.062-0.045,0.132-0.045,0.204        c0,0.273,0.221,0.494,0.494,0.494c0.05,0,0.099-0.008,0.146-0.022C251.66,466.941,251.666,467,251.666,467.061"/>
					</g>
					<g>
						<path style="fill:#FFFFFF;" d="M248.255,467.061c0,0.376-0.305,0.681-0.681,0.681c-0.376,0-0.681-0.305-0.681-0.681        s0.305-0.681,0.681-0.681c0.076,0,0.149,0.013,0.217,0.035c-0.023,0.047-0.034,0.1-0.034,0.155        c0,0.206,0.167,0.374,0.374,0.374c0.038,0,0.075-0.006,0.11-0.017C248.25,466.97,248.255,467.015,248.255,467.061"/>
					</g>
					<g>
						<g>
							<g>
								<rect x="242.908" y="467.83" style="fill:#FFFFFF;" width="0.616" height="0.616"/>
							</g>
							<g>
								<rect x="254.827" y="467.83" style="fill:#FFFFFF;" width="0.616" height="0.616"/>
							</g>
							<g>
								<path style="fill:#FFFFFF;" d="M255.205,468.082h-0.14c0-3.248-2.642-5.89-5.89-5.89c-3.248,0-5.89,2.642-5.89,5.89h-0.14          c0-1.611,0.627-3.125,1.766-4.264c1.139-1.139,2.653-1.766,4.264-1.766c1.611,0,3.125,0.627,4.264,1.766          C254.578,464.957,255.205,466.471,255.205,468.082"/>
							</g>
						</g>
						<g>
							<rect x="248.868" y="461.814" style="fill:#FFFFFF;" width="0.616" height="0.616"/>
						</g>
						<g>
							<rect x="244.95" y="462.052" style="fill:#FFFFFF;" width="8.45" height="0.14"/>
						</g>
						<g>
							<path style="fill:#FFFFFF;" d="M245.174,462.15c0,0.108-0.088,0.196-0.196,0.196c-0.108,0-0.196-0.088-0.196-0.196         c0-0.108,0.088-0.196,0.196-0.196C245.086,461.954,245.174,462.042,245.174,462.15"/>
						</g>
						<g>
							<path style="fill:#FFFFFF;" d="M253.596,462.15c0,0.108-0.088,0.196-0.196,0.196c-0.108,0-0.196-0.088-0.196-0.196         c0-0.108,0.088-0.196,0.196-0.196C253.509,461.954,253.596,462.042,253.596,462.15"/>
						</g>
					</g>
				</g>
				<g>
					<path style="fill:#FFFFFF;" d="M314.356,473.409c0,1.559-2.364,1.559-2.364,0C311.993,471.851,314.356,471.851,314.356,473.409       z"/>
				</g>
				<g>
					<g>
						<g>
							<path style="fill:#FFFFFF;" d="M161.739,466.549l1.772,6.088l1.855-6.088h2.215l-2.823,8.14h-2.33l-0.837-2.396l-0.722-2.708         l-0.722,2.708l-0.837,2.396h-2.33l-2.839-8.14h2.231l1.855,6.088l1.756-6.088H161.739z"/>
						</g>
						<g>
							<path style="fill:#FFFFFF;" d="M176.713,466.549l1.772,6.088l1.855-6.088h2.215l-2.823,8.14h-2.33l-0.837-2.396l-0.722-2.708         l-0.722,2.708l-0.837,2.396h-2.33l-2.839-8.14h2.231l1.855,6.088l1.756-6.088H176.713z"/>
						</g>
						<g>
							<path style="fill:#FFFFFF;" d="M191.687,466.549l1.772,6.088l1.855-6.088h2.215l-2.823,8.14h-2.33l-0.837-2.396l-0.722-2.708         l-0.722,2.708l-0.837,2.396h-2.33l-2.839-8.14h2.231l1.855,6.088l1.756-6.088H191.687z"/>
						</g>
					</g>
					<g>
						<path style="fill:#FFFFFF;" d="M200.908,473.52c0,1.559-2.364,1.559-2.364,0C198.545,471.962,200.908,471.962,200.908,473.52z        "/>
					</g>
					<g>
						<path style="fill:#FFFFFF;" d="M322.71,473.409c-0.935,0.919-1.919,1.28-3.117,1.28c-2.346,0-4.3-1.411-4.3-4.282        s1.953-4.284,4.3-4.284c1.149,0,2.035,0.329,2.921,1.199l-1.264,1.329c-0.476-0.428-1.066-0.64-1.623-0.64        c-1.346,0-2.33,0.985-2.33,2.396c0,1.542,1.05,2.362,2.297,2.362c0.64,0,1.28-0.18,1.772-0.672L322.71,473.409z"/>
					</g>
					<g>
						<path style="fill:#FFFFFF;" d="M331.805,470.472c0,2.33-1.591,4.217-4.217,4.217c-2.626,0-4.201-1.887-4.201-4.217        c0-2.314,1.609-4.217,4.185-4.217C330.149,466.255,331.805,468.158,331.805,470.472z M325.389,470.472        c0,1.231,0.739,2.38,2.199,2.38c1.46,0,2.199-1.149,2.199-2.38c0-1.215-0.854-2.396-2.199-2.396        C326.144,468.077,325.389,469.258,325.389,470.472z"/>
					</g>
					<g>
						<path style="fill:#FFFFFF;" d="M338.572,474.689v-4.332c0-1.068-0.559-2.035-1.658-2.035c-1.082,0-1.722,0.967-1.722,2.035        v4.332h-2.003v-8.107h1.855l0.148,0.985c0.426-0.82,1.362-1.116,2.133-1.116c0.969,0,1.937,0.394,2.396,1.51        c0.723-1.149,1.658-1.478,2.708-1.478c2.297,0,3.43,1.412,3.43,3.84v4.365h-2.003v-4.365c0-1.066-0.442-1.97-1.526-1.97        c-1.082,0-1.756,0.935-1.756,2.003v4.332H338.572z"/>
					</g>
				</g>
			</g>
		</g>
		<g style="opacity:0.61;">
			<g>
				<g>
					<path style="fill:#FFFFFF;" d="M345.988,431.299c-0.006-1.224-0.959-2.121-2.189-2.14c-0.924-0.014-0.832,0.12-0.834-0.867       c-0.003-1.097-0.007-2.194,0.003-3.292c0.003-0.379-0.112-0.691-0.362-0.976c-2.342-2.668-4.678-5.342-7.019-8.011       c-0.12-0.137-0.275-0.244-0.414-0.366c-6.214,0-12.427,0-18.641,0c-0.794,0.293-1.14,0.868-1.138,1.709       c0.01,3.748,0.004,7.496,0.004,11.243c0,0.556-0.003,0.589-0.55,0.551c-1.497-0.102-2.516,0.986-2.497,2.492       c0.044,3.476,0.013,6.953,0.014,10.429c0.001,1.58,0.867,2.443,2.45,2.449c0.582,0.002,0.582,0.002,0.582,0.6       c0,2.219-0.001,4.438,0.001,6.657c0.001,1.192,0.58,1.771,1.768,1.771c8.013,0.001,16.027,0.001,24.04,0       c1.168,0,1.755-0.583,1.757-1.745c0.002-2.256,0-4.512,0.001-6.768c0-0.512,0.002-0.511,0.52-0.515       c0.271-0.002,0.541,0.008,0.809-0.058c0.996-0.246,1.69-1.044,1.694-2.069C346.003,438.696,346.005,434.997,345.988,431.299z        M317.537,417.162c5.337,0,10.674,0,16.01,0c0.548,0,0.554,0.007,0.554,0.561c0.001,2.243-0.001,4.486,0.001,6.73       c0.001,0.811,0.249,1.059,1.06,1.059c1.91,0.001,3.821,0,5.731,0.001c0.458,0,0.479,0.021,0.481,0.483       c0.003,0.887,0.002,1.775,0,2.662c-0.001,0.477-0.024,0.498-0.504,0.499c-3.895,0.001-7.79,0-11.684,0       c-3.882,0-7.765,0-11.647,0c-0.55,0-0.552-0.001-0.552-0.561c-0.001-3.624-0.001-7.247,0-10.871       C316.987,417.166,316.991,417.162,317.537,417.162z M340.822,451.579c-3.883,0.001-7.766,0-11.65,0c-3.871,0-7.742,0-11.613,0       c-0.572,0-0.574-0.002-0.574-0.579c-0.001-1.997-0.001-3.994,0.001-5.991c0-0.464,0.023-0.486,0.478-0.487       c7.803-0.001,15.607-0.001,23.41,0c0.478,0,0.499,0.02,0.499,0.503c0.002,1.997,0.001,3.994,0,5.991       C341.375,451.574,341.37,451.579,340.822,451.579z"/>
				</g>
				<g>
					<g>
						<rect x="327.418" y="417.053" style="fill:#FFFFFF;" width="1.757" height="1.054"/>
					</g>
					<g>
						<rect x="325.662" y="418.107" style="fill:#FFFFFF;" width="1.757" height="1.054"/>
					</g>
					<g>
						<rect x="327.418" y="419.161" style="fill:#FFFFFF;" width="1.757" height="1.054"/>
					</g>
					<g>
						<rect x="325.662" y="420.215" style="fill:#FFFFFF;" width="1.757" height="1.054"/>
					</g>
					<g>
						<rect x="327.418" y="421.269" style="fill:#FFFFFF;" width="1.757" height="1.054"/>
					</g>
					<g>
						<rect x="325.662" y="422.323" style="fill:#FFFFFF;" width="1.757" height="1.054"/>
					</g>
					<g>
						<rect x="327.418" y="423.378" style="fill:#FFFFFF;" width="1.757" height="1.054"/>
					</g>
					<g>
						<rect x="325.662" y="424.432" style="fill:#FFFFFF;" width="1.757" height="1.054"/>
					</g>
					<g>
						<rect x="327.418" y="425.486" style="fill:#FFFFFF;" width="1.757" height="1.054"/>
					</g>
					<g>
						<rect x="325.662" y="426.54" style="fill:#FFFFFF;" width="1.757" height="1.054"/>
					</g>
					<g>
						<rect x="327.418" y="427.594" style="fill:#FFFFFF;" width="1.757" height="1.054"/>
					</g>
					<g>
						<rect x="325.662" y="428.648" style="fill:#FFFFFF;" width="1.757" height="1.054"/>
					</g>
				</g>
			</g>
			<g>
				<path style="fill:#FFFFFF;" d="M187.637,431.299c-0.006-1.224-0.959-2.121-2.189-2.14c-0.924-0.014-0.832,0.12-0.834-0.867      c-0.003-1.097-0.007-2.194,0.003-3.292c0.003-0.379-0.112-0.691-0.362-0.976c-2.342-2.668-4.678-5.342-7.019-8.011      c-0.12-0.137-0.275-0.244-0.414-0.366c-6.214,0-12.427,0-18.641,0c-0.794,0.293-1.14,0.868-1.138,1.709      c0.01,3.748,0.004,7.496,0.004,11.243c0,0.556-0.003,0.589-0.55,0.551c-1.497-0.102-2.516,0.986-2.497,2.492      c0.044,3.476,0.013,6.953,0.014,10.429c0.001,1.58,0.867,2.443,2.45,2.449c0.582,0.002,0.582,0.002,0.582,0.6      c0,2.219-0.001,4.438,0.001,6.657c0.001,1.192,0.58,1.771,1.768,1.771c8.013,0.001,16.027,0.001,24.04,0      c1.168,0,1.755-0.583,1.757-1.745c0.002-2.256,0-4.512,0.001-6.768c0-0.512,0.002-0.511,0.52-0.515      c0.271-0.002,0.541,0.008,0.809-0.058c0.996-0.246,1.69-1.044,1.694-2.069C187.652,438.696,187.655,434.997,187.637,431.299z       M159.187,417.162c5.337,0,10.674,0,16.01,0c0.548,0,0.554,0.007,0.554,0.561c0.001,2.243-0.001,4.486,0.001,6.73      c0.001,0.811,0.249,1.059,1.06,1.059c1.91,0.001,3.821,0,5.731,0.001c0.458,0,0.479,0.021,0.481,0.483      c0.003,0.887,0.002,1.775,0,2.662c-0.001,0.477-0.024,0.498-0.504,0.499c-3.895,0.001-7.79,0-11.684,0      c-3.882,0-7.765,0-11.647,0c-0.55,0-0.552-0.001-0.552-0.561c-0.001-3.624-0.001-7.247,0-10.871      C158.636,417.166,158.64,417.162,159.187,417.162z M182.472,451.579c-3.883,0.001-7.766,0-11.65,0c-3.871,0-7.742,0-11.613,0      c-0.572,0-0.574-0.002-0.574-0.579c-0.001-1.997-0.001-3.994,0.001-5.991c0-0.464,0.023-0.486,0.478-0.487      c7.803-0.001,15.607-0.001,23.41,0c0.478,0,0.499,0.02,0.499,0.503c0.002,1.997,0.001,3.994,0,5.991      C183.024,451.574,183.019,451.579,182.472,451.579z"/>
			</g>
			<g>
				<path style="fill:#FFFFFF;" d="M159.779,440.669v-7.897h2.779c0.375,0,0.726,0.061,1.053,0.182      c0.327,0.121,0.612,0.292,0.855,0.513c0.242,0.221,0.434,0.483,0.573,0.789c0.14,0.305,0.21,0.642,0.21,1.009      c0,0.375-0.07,0.715-0.21,1.02c-0.14,0.305-0.331,0.568-0.573,0.789c-0.243,0.221-0.528,0.392-0.855,0.513      c-0.327,0.121-0.678,0.182-1.053,0.182h-1.29v2.901H159.779z M162.58,436.356c0.39,0,0.684-0.111,0.882-0.331      c0.199-0.22,0.298-0.474,0.298-0.761c0-0.14-0.024-0.276-0.072-0.408c-0.048-0.132-0.121-0.248-0.221-0.347      c-0.099-0.099-0.223-0.178-0.37-0.237c-0.147-0.059-0.32-0.089-0.518-0.089h-1.312v2.173H162.58z"/>
				<path style="fill:#FFFFFF;" d="M166.308,432.771h1.731l3.177,5.294h0.088l-0.088-1.522v-3.772h1.478v7.897h-1.566l-3.353-5.592      h-0.088l0.088,1.522v4.07h-1.467V432.771z"/>
				<path style="fill:#FFFFFF;" d="M177.922,436.334h3.872c0.022,0.089,0.04,0.195,0.055,0.32c0.014,0.125,0.022,0.25,0.022,0.375      c0,0.507-0.077,0.985-0.231,1.434c-0.154,0.449-0.397,0.849-0.728,1.202c-0.353,0.375-0.776,0.666-1.268,0.871      c-0.493,0.206-1.055,0.309-1.688,0.309c-0.574,0-1.114-0.103-1.622-0.309c-0.507-0.206-0.948-0.492-1.323-0.86      c-0.375-0.367-0.673-0.803-0.894-1.307c-0.221-0.504-0.331-1.053-0.331-1.649c0-0.595,0.11-1.145,0.331-1.649      c0.221-0.504,0.518-0.939,0.894-1.307c0.375-0.367,0.816-0.654,1.323-0.86c0.507-0.206,1.048-0.309,1.622-0.309      c0.64,0,1.211,0.11,1.715,0.331c0.504,0.221,0.935,0.526,1.296,0.915l-1.025,1.004c-0.258-0.272-0.544-0.48-0.861-0.623      c-0.316-0.143-0.695-0.215-1.136-0.215c-0.361,0-0.703,0.065-1.026,0.193c-0.324,0.129-0.607,0.311-0.85,0.546      c-0.242,0.235-0.436,0.52-0.579,0.855c-0.143,0.335-0.215,0.708-0.215,1.119c0,0.412,0.072,0.785,0.215,1.12      c0.143,0.335,0.338,0.62,0.584,0.855c0.246,0.235,0.531,0.418,0.855,0.546c0.323,0.129,0.669,0.193,1.037,0.193      c0.419,0,0.773-0.061,1.064-0.182c0.29-0.121,0.538-0.278,0.744-0.469c0.148-0.132,0.275-0.3,0.381-0.502      c0.106-0.202,0.189-0.428,0.248-0.678h-2.482V436.334z"/>
			</g>
			<g>
				<path style="fill:#FFFFFF;" d="M224.019,431.299c-0.006-1.224-0.959-2.121-2.189-2.14c-0.924-0.014-0.832,0.12-0.834-0.867      c-0.003-1.097-0.007-2.194,0.003-3.292c0.003-0.379-0.112-0.691-0.362-0.976c-2.342-2.668-4.678-5.342-7.019-8.011      c-0.12-0.137-0.275-0.244-0.414-0.366c-6.214,0-12.427,0-18.641,0c-0.794,0.293-1.14,0.868-1.138,1.709      c0.01,3.748,0.004,7.496,0.004,11.243c0,0.556-0.003,0.589-0.55,0.551c-1.497-0.102-2.516,0.986-2.497,2.492      c0.044,3.476,0.013,6.953,0.014,10.429c0.001,1.58,0.867,2.443,2.45,2.449c0.582,0.002,0.582,0.002,0.582,0.6      c0,2.219-0.001,4.438,0.001,6.657c0.001,1.192,0.58,1.771,1.768,1.771c8.013,0.001,16.027,0.001,24.04,0      c1.168,0,1.755-0.583,1.757-1.745c0.002-2.256,0-4.512,0.001-6.768c0-0.512,0.002-0.511,0.52-0.515      c0.271-0.002,0.541,0.008,0.809-0.058c0.997-0.246,1.69-1.044,1.694-2.069C224.034,438.696,224.036,434.997,224.019,431.299z       M195.568,417.162c5.337,0,10.674,0,16.01,0c0.548,0,0.554,0.007,0.554,0.561c0.001,2.243-0.001,4.486,0.001,6.73      c0.001,0.811,0.249,1.059,1.06,1.059c1.91,0.001,3.821,0,5.731,0.001c0.458,0,0.479,0.021,0.481,0.483      c0.003,0.887,0.002,1.775,0,2.662c-0.001,0.477-0.024,0.498-0.504,0.499c-3.895,0.001-7.79,0-11.684,0      c-3.882,0-7.765,0-11.647,0c-0.55,0-0.552-0.001-0.552-0.561c-0.001-3.624-0.001-7.247,0-10.871      C195.018,417.166,195.022,417.162,195.568,417.162z M218.854,451.579c-3.883,0.001-7.766,0-11.65,0c-3.871,0-7.742,0-11.613,0      c-0.572,0-0.574-0.002-0.574-0.579c-0.001-1.997-0.001-3.994,0.001-5.991c0-0.464,0.023-0.486,0.478-0.487      c7.803-0.001,15.607-0.001,23.41,0c0.478,0,0.499,0.02,0.499,0.503c0.002,1.997,0.001,3.994,0,5.991      C219.406,451.574,219.401,451.579,218.854,451.579z"/>
			</g>
			<g>
				<path style="fill:#FFFFFF;" d="M205.111,432.771h1.699l2.967,7.897h-1.644l-0.651-1.886h-3.044l-0.651,1.886h-1.643      L205.111,432.771z M206.997,437.415l-0.706-1.974l-0.287-0.96h-0.088l-0.287,0.96l-0.706,1.974H206.997z"/>
				<path style="fill:#FFFFFF;" d="M211.331,434.536c-0.125,0-0.245-0.024-0.359-0.072c-0.114-0.048-0.213-0.114-0.298-0.199      c-0.084-0.084-0.151-0.182-0.198-0.292c-0.048-0.11-0.072-0.232-0.072-0.364s0.024-0.254,0.072-0.364      c0.048-0.11,0.114-0.208,0.198-0.292c0.084-0.084,0.184-0.151,0.298-0.198c0.114-0.048,0.233-0.072,0.359-0.072      c0.257,0,0.478,0.09,0.662,0.27c0.184,0.181,0.276,0.399,0.276,0.656s-0.092,0.476-0.276,0.656      C211.809,434.446,211.589,434.536,211.331,434.536z M210.615,440.669v-5.404h1.445v5.404H210.615z"/>
			</g>
			<g>
				<path style="fill:#FFFFFF;" d="M261.044,431.299c-0.006-1.224-0.959-2.121-2.189-2.14c-0.924-0.014-0.832,0.12-0.834-0.867      c-0.003-1.097-0.007-2.194,0.003-3.292c0.003-0.379-0.112-0.691-0.362-0.976c-2.342-2.668-4.678-5.342-7.019-8.011      c-0.12-0.137-0.275-0.244-0.414-0.366c-6.214,0-12.427,0-18.641,0c-0.794,0.293-1.14,0.868-1.138,1.709      c0.01,3.748,0.004,7.496,0.004,11.243c0,0.556-0.003,0.589-0.55,0.551c-1.497-0.102-2.516,0.986-2.497,2.492      c0.044,3.476,0.013,6.953,0.014,10.429c0.001,1.58,0.867,2.443,2.45,2.449c0.582,0.002,0.582,0.002,0.582,0.6      c0,2.219-0.001,4.438,0.001,6.657c0.001,1.192,0.58,1.771,1.768,1.771c8.013,0.001,16.027,0.001,24.04,0      c1.168,0,1.755-0.583,1.757-1.745c0.002-2.256,0-4.512,0.001-6.768c0-0.512,0.002-0.511,0.52-0.515      c0.271-0.002,0.541,0.008,0.809-0.058c0.996-0.246,1.69-1.044,1.694-2.069C261.059,438.696,261.061,434.997,261.044,431.299z       M232.593,417.162c5.337,0,10.674,0,16.01,0c0.548,0,0.554,0.007,0.554,0.561c0.001,2.243-0.001,4.486,0.001,6.73      c0.001,0.811,0.249,1.059,1.06,1.059c1.91,0.001,3.821,0,5.731,0.001c0.458,0,0.479,0.021,0.481,0.483      c0.003,0.887,0.002,1.775,0,2.662c-0.001,0.477-0.024,0.498-0.504,0.499c-3.895,0.001-7.79,0-11.684,0      c-3.882,0-7.765,0-11.647,0c-0.55,0-0.552-0.001-0.552-0.561c-0.001-3.624-0.001-7.247,0-10.871      C232.042,417.166,232.047,417.162,232.593,417.162z M255.878,451.579c-3.883,0.001-7.766,0-11.65,0c-3.871,0-7.742,0-11.613,0      c-0.572,0-0.574-0.002-0.574-0.579c-0.001-1.997-0.001-3.994,0.001-5.991c0-0.464,0.023-0.486,0.478-0.487      c7.803-0.001,15.607-0.001,23.41,0c0.478,0,0.499,0.02,0.499,0.503c0.002,1.997,0.001,3.994,0,5.991      C256.431,451.574,256.426,451.579,255.878,451.579z"/>
			</g>
			<g>
				<path style="fill:#FFFFFF;" d="M236.361,440.845c-0.338,0-0.662-0.048-0.971-0.143c-0.309-0.095-0.592-0.239-0.849-0.43      c-0.257-0.191-0.481-0.425-0.673-0.7c-0.191-0.276-0.342-0.597-0.452-0.965l1.401-0.551c0.103,0.397,0.283,0.726,0.54,0.987      c0.257,0.261,0.596,0.392,1.015,0.392c0.154,0,0.303-0.02,0.447-0.061c0.143-0.04,0.272-0.099,0.386-0.176      s0.204-0.175,0.27-0.292c0.066-0.118,0.099-0.254,0.099-0.408c0-0.147-0.026-0.279-0.077-0.397      c-0.051-0.117-0.138-0.227-0.259-0.331c-0.121-0.103-0.28-0.202-0.475-0.298c-0.195-0.095-0.435-0.195-0.722-0.298l-0.485-0.176      c-0.213-0.073-0.429-0.173-0.645-0.298c-0.217-0.125-0.413-0.276-0.59-0.452c-0.177-0.176-0.322-0.384-0.436-0.623      c-0.114-0.239-0.171-0.509-0.171-0.81c0-0.309,0.06-0.597,0.182-0.866c0.121-0.268,0.294-0.503,0.518-0.706      c0.224-0.202,0.492-0.36,0.805-0.474s0.66-0.171,1.042-0.171c0.397,0,0.74,0.053,1.031,0.16      c0.291,0.107,0.537,0.243,0.739,0.408c0.202,0.165,0.366,0.348,0.491,0.546c0.125,0.199,0.217,0.386,0.276,0.563l-1.312,0.551      c-0.074-0.221-0.208-0.419-0.402-0.596c-0.195-0.176-0.462-0.265-0.8-0.265c-0.324,0-0.592,0.075-0.805,0.226      c-0.213,0.151-0.32,0.348-0.32,0.59c0,0.235,0.103,0.436,0.309,0.601c0.206,0.165,0.533,0.325,0.982,0.48l0.497,0.165      c0.316,0.111,0.605,0.237,0.866,0.381c0.261,0.143,0.485,0.314,0.673,0.513c0.187,0.199,0.331,0.425,0.43,0.678      c0.1,0.254,0.149,0.546,0.149,0.877c0,0.412-0.083,0.767-0.248,1.064c-0.165,0.298-0.377,0.542-0.634,0.734      c-0.258,0.191-0.548,0.335-0.872,0.43C236.986,440.797,236.67,440.845,236.361,440.845z"/>
				<path style="fill:#FFFFFF;" d="M239.516,432.771h1.61l1.633,4.754l0.287,1.015h0.088l0.309-1.015l1.699-4.754h1.61l-2.879,7.897      h-1.566L239.516,432.771z"/>
				<path style="fill:#FFFFFF;" d="M251.097,436.334h3.871c0.022,0.089,0.04,0.195,0.055,0.32c0.015,0.125,0.023,0.25,0.023,0.375      c0,0.507-0.078,0.985-0.232,1.434c-0.154,0.449-0.397,0.849-0.728,1.202c-0.353,0.375-0.775,0.666-1.268,0.871      c-0.493,0.206-1.055,0.309-1.688,0.309c-0.574,0-1.114-0.103-1.621-0.309c-0.507-0.206-0.949-0.492-1.324-0.86      c-0.375-0.367-0.673-0.803-0.894-1.307c-0.22-0.504-0.331-1.053-0.331-1.649c0-0.595,0.11-1.145,0.331-1.649      c0.221-0.504,0.518-0.939,0.894-1.307c0.375-0.367,0.816-0.654,1.324-0.86c0.507-0.206,1.047-0.309,1.621-0.309      c0.64,0,1.211,0.11,1.715,0.331c0.504,0.221,0.936,0.526,1.296,0.915l-1.026,1.004c-0.257-0.272-0.544-0.48-0.861-0.623      c-0.316-0.143-0.694-0.215-1.136-0.215c-0.36,0-0.702,0.065-1.026,0.193c-0.323,0.129-0.607,0.311-0.849,0.546      c-0.243,0.235-0.436,0.52-0.579,0.855c-0.143,0.335-0.215,0.708-0.215,1.119c0,0.412,0.072,0.785,0.215,1.12      c0.143,0.335,0.338,0.62,0.585,0.855c0.246,0.235,0.531,0.418,0.854,0.546c0.324,0.129,0.669,0.193,1.037,0.193      c0.419,0,0.774-0.061,1.064-0.182c0.29-0.121,0.539-0.278,0.745-0.469c0.147-0.132,0.274-0.3,0.38-0.502      c0.107-0.202,0.189-0.428,0.248-0.678h-2.482V436.334z"/>
			</g>
			<g>
				<path style="fill:#FFFFFF;" d="M297.3,431.299c-0.006-1.224-0.959-2.121-2.189-2.14c-0.924-0.014-0.832,0.12-0.834-0.867      c-0.003-1.097-0.007-2.194,0.003-3.292c0.003-0.379-0.112-0.691-0.362-0.976c-2.342-2.668-4.678-5.342-7.019-8.011      c-0.12-0.137-0.275-0.244-0.414-0.366c-6.214,0-12.427,0-18.641,0c-0.794,0.293-1.14,0.868-1.138,1.709      c0.01,3.748,0.004,7.496,0.004,11.243c0,0.556-0.003,0.589-0.55,0.551c-1.497-0.102-2.516,0.986-2.497,2.492      c0.044,3.476,0.013,6.953,0.014,10.429c0.001,1.58,0.867,2.443,2.45,2.449c0.582,0.002,0.582,0.002,0.582,0.6      c0,2.219-0.001,4.438,0.001,6.657c0.001,1.192,0.58,1.771,1.768,1.771c8.013,0.001,16.027,0.001,24.04,0      c1.168,0,1.755-0.583,1.757-1.745c0.002-2.256,0-4.512,0.001-6.768c0-0.512,0.002-0.511,0.52-0.515      c0.271-0.002,0.541,0.008,0.809-0.058c0.996-0.246,1.69-1.044,1.694-2.069C297.315,438.696,297.318,434.997,297.3,431.299z       M268.85,417.162c5.337,0,10.674,0,16.01,0c0.548,0,0.554,0.007,0.554,0.561c0.001,2.243-0.001,4.486,0.001,6.73      c0.001,0.811,0.249,1.059,1.06,1.059c1.91,0.001,3.821,0,5.731,0.001c0.458,0,0.479,0.021,0.481,0.483      c0.003,0.887,0.002,1.775,0,2.662c-0.001,0.477-0.024,0.498-0.504,0.499c-3.895,0.001-7.79,0-11.684,0      c-3.882,0-7.765,0-11.647,0c-0.55,0-0.552-0.001-0.552-0.561c-0.001-3.624-0.001-7.247,0-10.871      C268.299,417.166,268.303,417.162,268.85,417.162z M292.135,451.579c-3.883,0.001-7.766,0-11.65,0c-3.871,0-7.742,0-11.613,0      c-0.572,0-0.574-0.002-0.574-0.579c-0.001-1.997-0.001-3.994,0.001-5.991c0-0.464,0.023-0.486,0.478-0.487      c7.803-0.001,15.607-0.001,23.41,0c0.478,0,0.499,0.02,0.499,0.503c0.001,1.997,0.001,3.994,0,5.991      C292.687,451.574,292.682,451.579,292.135,451.579z"/>
			</g>
			<g>
				<path style="fill:#FFFFFF;" d="M272.966,434.183v1.831h3.165v1.412h-3.165v1.831h3.518v1.412h-5.007v-7.897h5.007v1.412H272.966      z"/>
				<path style="fill:#FFFFFF;" d="M277.852,440.669v-7.897h2.779c0.375,0,0.726,0.061,1.053,0.182      c0.327,0.121,0.612,0.292,0.855,0.513c0.243,0.221,0.434,0.483,0.574,0.789c0.14,0.305,0.209,0.642,0.209,1.009      c0,0.375-0.07,0.715-0.209,1.02c-0.14,0.305-0.331,0.568-0.574,0.789c-0.243,0.221-0.528,0.392-0.855,0.513      c-0.327,0.121-0.678,0.182-1.053,0.182h-1.29v2.901H277.852z M280.653,436.356c0.389,0,0.684-0.111,0.882-0.331      c0.199-0.22,0.298-0.474,0.298-0.761c0-0.14-0.024-0.276-0.072-0.408c-0.048-0.132-0.121-0.248-0.221-0.347      c-0.099-0.099-0.222-0.178-0.37-0.237c-0.147-0.059-0.32-0.089-0.518-0.089h-1.312v2.173H280.653z"/>
				<path style="fill:#FFFFFF;" d="M286.797,440.845c-0.338,0-0.662-0.048-0.971-0.143c-0.309-0.095-0.592-0.239-0.849-0.43      c-0.257-0.191-0.482-0.425-0.673-0.7c-0.191-0.276-0.342-0.597-0.452-0.965l1.401-0.551c0.103,0.397,0.283,0.726,0.541,0.987      c0.257,0.261,0.595,0.392,1.015,0.392c0.154,0,0.303-0.02,0.447-0.061c0.143-0.04,0.272-0.099,0.386-0.176      c0.114-0.077,0.204-0.175,0.27-0.292c0.066-0.118,0.1-0.254,0.1-0.408c0-0.147-0.026-0.279-0.077-0.397      c-0.051-0.117-0.138-0.227-0.259-0.331c-0.121-0.103-0.279-0.202-0.474-0.298c-0.195-0.095-0.436-0.195-0.723-0.298      l-0.485-0.176c-0.213-0.073-0.428-0.173-0.645-0.298c-0.217-0.125-0.414-0.276-0.59-0.452c-0.176-0.176-0.322-0.384-0.436-0.623      c-0.114-0.239-0.171-0.509-0.171-0.81c0-0.309,0.061-0.597,0.182-0.866c0.121-0.268,0.294-0.503,0.518-0.706      c0.224-0.202,0.493-0.36,0.805-0.474c0.312-0.114,0.66-0.171,1.042-0.171c0.397,0,0.741,0.053,1.031,0.16      c0.29,0.107,0.537,0.243,0.739,0.408c0.202,0.165,0.365,0.348,0.491,0.546c0.125,0.199,0.217,0.386,0.276,0.563l-1.312,0.551      c-0.074-0.221-0.208-0.419-0.403-0.596c-0.195-0.176-0.462-0.265-0.799-0.265c-0.324,0-0.592,0.075-0.805,0.226      c-0.213,0.151-0.32,0.348-0.32,0.59c0,0.235,0.103,0.436,0.309,0.601c0.206,0.165,0.533,0.325,0.982,0.48l0.496,0.165      c0.316,0.111,0.605,0.237,0.866,0.381c0.261,0.143,0.485,0.314,0.673,0.513c0.187,0.199,0.331,0.425,0.43,0.678      c0.099,0.254,0.149,0.546,0.149,0.877c0,0.412-0.083,0.767-0.248,1.064c-0.165,0.298-0.377,0.542-0.634,0.734      c-0.258,0.191-0.548,0.335-0.872,0.43C287.422,440.797,287.105,440.845,286.797,440.845z"/>
			</g>
			<g>
				<path style="fill:#FFFFFF;" d="M321.394,439.168l4.004-4.985h-3.827v-1.412h5.559v1.5l-3.96,4.985h4.004v1.412h-5.779V439.168z"/>
				<path style="fill:#FFFFFF;" d="M328.409,432.771h1.489v7.897h-1.489V432.771z"/>
				<path style="fill:#FFFFFF;" d="M331.486,440.669v-7.897h2.779c0.375,0,0.726,0.061,1.053,0.182      c0.327,0.121,0.612,0.292,0.855,0.513s0.434,0.483,0.574,0.789c0.14,0.305,0.209,0.642,0.209,1.009      c0,0.375-0.07,0.715-0.209,1.02c-0.14,0.305-0.331,0.568-0.574,0.789c-0.243,0.221-0.528,0.392-0.855,0.513      c-0.327,0.121-0.678,0.182-1.053,0.182h-1.29v2.901H331.486z M334.288,436.356c0.389,0,0.684-0.111,0.882-0.331      c0.199-0.22,0.298-0.474,0.298-0.761c0-0.14-0.024-0.276-0.072-0.408c-0.048-0.132-0.121-0.248-0.221-0.347      c-0.099-0.099-0.222-0.178-0.37-0.237c-0.147-0.059-0.32-0.089-0.518-0.089h-1.312v2.173H334.288z"/>
			</g>
		</g>
		<g style="opacity:0.61;">
			<path style="fill:#FFFFFF;" d="M300.133,433.27h9.067v2.242h-9.067V433.27z M300.133,437.136h9.067v2.243h-9.067V437.136z"/>
		</g>
	</g>
	<g style="opacity:0.61;">
		<path style="fill:#FFFFFF;" d="M156.756,478.878h1.607c1.263,0,2.114,0.812,2.114,1.974c0,1.161-0.851,1.973-2.114,1.973h-1.607    V478.878z M158.34,482.464c1.049,0,1.725-0.665,1.725-1.612c0-0.947-0.677-1.613-1.725-1.613h-1.167v3.225H158.34z"/>
		<path style="fill:#FFFFFF;" d="M165.139,480.851c0-1.15,0.879-2.007,2.075-2.007c1.184,0,2.069,0.851,2.069,2.007    c0,1.156-0.885,2.007-2.069,2.007C166.019,482.858,165.139,482.002,165.139,480.851z M168.866,480.851    c0-0.942-0.705-1.635-1.652-1.635c-0.953,0-1.663,0.693-1.663,1.635c0,0.941,0.71,1.635,1.663,1.635    C168.162,482.486,168.866,481.793,168.866,480.851z"/>
		<path style="fill:#FFFFFF;" d="M179.596,478.878l-1.331,3.947h-0.44l-1.156-3.366l-1.161,3.366h-0.434l-1.331-3.947h0.429    l1.139,3.394l1.178-3.394h0.389l1.161,3.411l1.156-3.411H179.596z"/>
		<path style="fill:#FFFFFF;" d="M187.731,478.878v3.947h-0.344l-2.537-3.202v3.202h-0.417v-3.947h0.344l2.543,3.203v-3.203H187.731    z"/>
		<path style="fill:#FFFFFF;" d="M193.093,478.878h0.417v3.586h2.21v0.361h-2.627V478.878z"/>
		<path style="fill:#FFFFFF;" d="M200.061,480.851c0-1.15,0.879-2.007,2.075-2.007c1.184,0,2.069,0.851,2.069,2.007    c0,1.156-0.885,2.007-2.069,2.007C200.941,482.858,200.061,482.002,200.061,480.851z M203.788,480.851    c0-0.942-0.705-1.635-1.652-1.635c-0.953,0-1.663,0.693-1.663,1.635c0,0.941,0.71,1.635,1.663,1.635    C203.083,482.486,203.788,481.793,203.788,480.851z"/>
		<path style="fill:#FFFFFF;" d="M211.636,481.77h-2.199l-0.474,1.054h-0.434l1.804-3.947h0.412l1.804,3.947h-0.44L211.636,481.77z     M211.484,481.432l-0.947-2.12l-0.947,2.12H211.484z"/>
		<path style="fill:#FFFFFF;" d="M217.28,478.878h1.607c1.263,0,2.114,0.812,2.114,1.974c0,1.161-0.851,1.973-2.114,1.973h-1.607    V478.878z M218.864,482.464c1.049,0,1.725-0.665,1.725-1.612c0-0.947-0.677-1.613-1.725-1.613h-1.167v3.225H218.864z"/>
		<path style="fill:#FFFFFF;" d="M234.041,481.77h-2.199l-0.474,1.054h-0.434l1.804-3.947h0.412l1.804,3.947h-0.44L234.041,481.77z     M233.889,481.432l-0.947-2.12l-0.947,2.12H233.889z"/>
		<path style="fill:#FFFFFF;" d="M239.685,478.878h0.417v3.586h2.21v0.361h-2.627V478.878z"/>
		<path style="fill:#FFFFFF;" d="M247.082,478.878h0.417v3.586h2.21v0.361h-2.627V478.878z"/>
		<path style="fill:#FFFFFF;" d="M260.449,479.239v1.551h2.041v0.361h-2.041v1.675h-0.417v-3.947h2.706v0.361H260.449z"/>
		<path style="fill:#FFFFFF;" d="M267.678,478.878h0.417v3.947h-0.417V478.878z"/>
		<path style="fill:#FFFFFF;" d="M273.456,478.878h0.417v3.586h2.21v0.361h-2.627V478.878z"/>
		<path style="fill:#FFFFFF;" d="M283.644,482.464v0.361h-2.791v-3.947h2.706v0.361h-2.289v1.404h2.041v0.355h-2.041v1.466H283.644z    "/>
		<path style="fill:#FFFFFF;" d="M294.672,479.239v1.551h2.041v0.361h-2.041v1.675h-0.417v-3.947h2.706v0.361H294.672z"/>
		<path style="fill:#FFFFFF;" d="M301.5,480.851c0-1.15,0.879-2.007,2.075-2.007c1.184,0,2.069,0.851,2.069,2.007    c0,1.156-0.885,2.007-2.069,2.007C302.379,482.858,301.5,482.002,301.5,480.851z M305.226,480.851    c0-0.942-0.705-1.635-1.652-1.635c-0.953,0-1.663,0.693-1.663,1.635c0,0.941,0.71,1.635,1.663,1.635    C304.522,482.486,305.226,481.793,305.226,480.851z"/>
		<path style="fill:#FFFFFF;" d="M313.351,482.825l-0.902-1.269c-0.102,0.011-0.203,0.017-0.316,0.017h-1.06v1.252h-0.417v-3.947    h1.477c1.004,0,1.613,0.507,1.613,1.353c0,0.62-0.327,1.054-0.902,1.24l0.964,1.353H313.351z M313.328,480.231    c0-0.632-0.417-0.992-1.207-0.992h-1.048v1.979h1.048C312.911,481.218,313.328,480.851,313.328,480.231z"/>
		<path style="fill:#FFFFFF;" d="M322.907,478.878v3.947h-0.4v-3.158l-1.551,2.656h-0.197l-1.551-2.639v3.14h-0.4v-3.947h0.344    l1.714,2.926l1.697-2.926H322.907z"/>
		<path style="fill:#FFFFFF;" d="M330.744,481.77h-2.199l-0.473,1.054h-0.434l1.804-3.947h0.411l1.804,3.947h-0.44L330.744,481.77z     M330.592,481.432l-0.947-2.12l-0.947,2.12H330.592z"/>
		<path style="fill:#FFFFFF;" d="M336.957,479.239h-1.387v-0.361h3.192v0.361h-1.387v3.586h-0.417V479.239z"/>
		<path style="fill:#FFFFFF;" d="M343.063,482.346l0.164-0.321c0.282,0.276,0.784,0.479,1.302,0.479c0.739,0,1.06-0.31,1.06-0.699    c0-1.083-2.43-0.417-2.43-1.877c0-0.581,0.451-1.083,1.455-1.083c0.446,0,0.908,0.13,1.224,0.35l-0.141,0.333    c-0.338-0.22-0.733-0.327-1.083-0.327c-0.722,0-1.043,0.321-1.043,0.716c0,1.083,2.43,0.429,2.43,1.866    c0,0.581-0.462,1.077-1.472,1.077C343.937,482.858,343.356,482.65,343.063,482.346z"/>
	</g>
</g>
<g>
</g>
<g>
	<path style="fill:#223F99;" d="M72.341,167.752c0,13.729-7.735,20.613-23.245,20.613c-6.642,0-12.149-1.742-16.483-5.224   c-4.738-3.767-7.128-8.91-7.128-15.389c0-6.196,2.47-11.258,7.37-15.186c4.495-3.644,9.922-5.467,16.24-5.467   c6.155,0,11.5,1.863,15.996,5.548C69.951,156.615,72.341,161.637,72.341,167.752L72.341,167.752z M69.263,255.873   c0,5.79,0.121,14.376,0.364,25.796c0.243,11.461,0.365,20.006,0.365,25.716c0,1.66-1.013,2.632-2.997,2.956   c-2.673,0.486-8.707,0.729-18.143,0.729c-9.476,0-15.591-0.244-18.264-0.729c-1.742-0.324-2.794-0.851-3.2-1.539   c-0.162-0.324-0.243-1.498-0.243-3.564c0-5.467,0.121-13.647,0.364-24.622c0.244-10.934,0.365-19.196,0.365-24.743   c0-22.435-0.891-40.335-2.633-53.618C25.081,201,25,200.149,25,199.785c0-1.62,1.094-2.39,3.2-2.39   c2.227,0,5.629,0.244,10.165,0.729c4.535,0.446,7.978,0.688,10.245,0.688c2.308,0,5.751-0.203,10.327-0.607   c4.576-0.365,8.018-0.567,10.326-0.567c1.903,0,2.835,0.77,2.835,2.349c0,0.324-0.08,1.093-0.243,2.268   C70.154,217.684,69.263,235.544,69.263,255.873L69.263,255.873z M210.07,306.899c0,2.146-1.093,3.361-3.32,3.685   c-2.227,0.324-7.978,0.486-17.333,0.486c-9.963,0-16.118-0.244-18.507-0.729c-2.349-0.486-3.564-2.106-3.564-4.859   c0-3.726,0.121-9.355,0.364-16.847c0.244-7.533,0.365-13.162,0.365-16.968c0-2.916-0.081-7.289-0.244-13.121   c-0.162-5.791-0.243-10.165-0.243-13.122c0-10.813-4.698-16.239-14.093-16.239c-3.077,0-6.682,1.337-10.813,4.05   c-4.414,2.997-6.641,5.953-6.641,8.868v64.067c0,2.632-1.215,4.09-3.685,4.414c-2.754,0.324-8.423,0.486-16.968,0.486   c-9.233,0-15.267-0.244-18.021-0.729c-2.47-0.405-3.685-1.701-3.685-3.928c0-6.155,0.04-15.47,0.121-27.862   c0.081-12.433,0.121-21.747,0.121-28.024c0-19.681-1.539-35.152-4.616-46.369c-0.162-0.729-0.243-1.296-0.243-1.782   c0-1.255,0.607-2.146,1.782-2.592c4.981-0.567,11.623-1.458,19.924-2.633c12.595-2.429,19.641-3.685,21.22-3.685   c0.891,0,1.539,2.673,2.025,8.019c0.486,5.346,1.174,8.018,2.025,8.018c-0.851,0,3.401-2.754,12.756-8.261   c9.355-5.507,17.576-8.221,24.622-8.221c10.043,0,18.426,2.349,25.148,7.087c7.533,5.467,11.258,13.08,11.258,22.8v37.824   c0,5.143,0.041,12.838,0.121,23.083C210.03,294.061,210.07,301.756,210.07,306.899L210.07,306.899z M338.567,245.911   c0,7.978-2.592,12.554-7.735,13.648c-0.851,0.161-9.031,1.012-24.541,2.632c-9.355,1.012-23.245,2.227-41.753,3.645   c1.094,5.143,4.455,9.071,10.084,11.744c4.576,2.227,9.8,3.321,15.631,3.321c7.047,0,14.134-1.863,21.261-5.67   c2.997-1.903,5.993-3.807,8.99-5.71c1.66,0.81,4.455,4.819,8.383,12.108c3.928,7.289,5.872,11.906,5.872,13.89   c0,0.527-0.608,1.458-1.782,2.714c-9.639,10.366-24.623,15.551-44.951,15.551c-18.832,0-34.018-5.507-45.559-16.483   c-11.866-11.177-17.819-26.08-17.819-44.749c0-18.184,5.306-33.086,15.916-44.709c10.893-12.028,25.392-18.062,43.413-18.062   c15.186,0,28.064,5.548,38.674,16.644C333.261,217.482,338.567,230.644,338.567,245.911L338.567,245.911z M297.017,238.662   c0-4.9-1.742-9.193-5.224-12.919c-3.483-3.725-7.613-5.589-12.432-5.589c-4.981,0-9.112,2.106-12.352,6.318   c-2.996,3.847-4.495,8.423-4.495,13.648c0,2.106,1.094,3.199,3.321,3.199c5.831,0,14.944-0.931,27.295-2.753   C295.721,240.2,297.017,239.553,297.017,238.662L297.017,238.662z M470.829,251.013c0,6.115,0.364,15.146,1.094,27.173   c0.688,12.028,1.053,21.059,1.053,27.052c0,3.159-1.376,4.86-4.131,5.103c-9.841,0.729-21.058,1.053-33.693,1.053   c-1.539,0-2.511-2.268-3.037-6.803c-0.527-4.536-1.134-6.885-1.863-6.925c-0.608,0.283-1.458,0.971-2.47,1.984   c-8.869,8.95-18.345,13.404-28.469,13.404c-15.429,0-28.226-6.074-38.351-18.264c-9.557-11.38-14.336-24.987-14.336-40.821   c0-18.265,4.941-32.964,14.821-44.101c10.286-11.582,24.379-17.333,42.238-17.333c12.432,0,22.233,4.333,29.442,13.04   c0.323,0.405,0.567,0.607,0.81,0.607c0.728,0,1.539-1.943,2.43-5.75c0.931-3.848,2.025-5.751,3.28-5.751   c2.916,0,8.504,0.81,16.725,2.47c7.816,1.579,13.445,2.916,16.846,4.05c1.175,0.445,1.782,1.093,1.782,1.903   c0,0.283-0.121,1.134-0.364,2.47C472.125,219.912,470.829,235.057,470.829,251.013L470.829,251.013z M432.64,251.743   c0-6.722-2.106-12.271-6.358-16.685c-4.211-4.374-9.719-6.56-16.522-6.56c-6.804,0-12.312,2.146-16.523,6.52   c-4.172,4.333-6.277,9.922-6.277,16.725c0,6.398,2.226,11.906,6.641,16.482c4.455,4.576,9.8,6.885,16.159,6.885   c6.722,0,12.19-2.187,16.482-6.601C430.494,264.135,432.64,258.546,432.64,251.743z"/>
	<path style="fill:#223F99;" d="M26.353,334.664v-3.857h4.419v3.857H26.353L26.353,334.664z M26.353,352.548V336.8h4.419v15.748   H26.353L26.353,352.548z M49.983,352.548h-4.418v-8.039c0-1.701-0.097-2.799-0.285-3.3c-0.188-0.496-0.499-0.886-0.924-1.165   c-0.424-0.273-0.933-0.414-1.529-0.414c-0.768,0-1.456,0.197-2.062,0.592c-0.606,0.4-1.025,0.921-1.251,1.574   c-0.226,0.653-0.339,1.858-0.339,3.619v7.132h-4.418V336.8h4.102v2.313c1.459-1.782,3.296-2.673,5.508-2.673   c0.971,0,1.868,0.167,2.674,0.497c0.805,0.334,1.417,0.754,1.831,1.271c0.413,0.516,0.703,1.098,0.864,1.751   c0.167,0.653,0.247,1.585,0.247,2.8V352.548L49.983,352.548z M52.396,348.053l4.434-0.638c0.188,0.81,0.569,1.427,1.149,1.848   c0.574,0.42,1.38,0.632,2.421,0.632c1.143,0,2.002-0.197,2.576-0.597c0.392-0.273,0.586-0.648,0.586-1.108   c0-0.319-0.107-0.583-0.316-0.79c-0.221-0.198-0.715-0.38-1.477-0.547c-3.565-0.739-5.825-1.418-6.781-2.03   c-1.32-0.851-1.981-2.035-1.981-3.549c0-1.362,0.569-2.51,1.712-3.437c1.144-0.932,2.915-1.397,5.316-1.397   c2.286,0,3.988,0.354,5.1,1.053c1.11,0.703,1.873,1.741,2.292,3.117l-4.166,0.724c-0.177-0.613-0.515-1.083-1.015-1.407   c-0.499-0.329-1.207-0.491-2.131-0.491c-1.165,0-1.998,0.152-2.502,0.461c-0.333,0.217-0.5,0.501-0.5,0.845   c0,0.298,0.145,0.547,0.441,0.754c0.397,0.278,1.771,0.668,4.128,1.174c2.352,0.501,3.995,1.119,4.928,1.853   c0.924,0.744,1.385,1.776,1.385,3.098c0,1.442-0.639,2.688-1.922,3.726c-1.278,1.038-3.167,1.554-5.674,1.554   c-2.276,0-4.075-0.435-5.406-1.305C53.668,350.73,52.803,349.546,52.396,348.053L52.396,348.053z M79.009,336.8v3.321h-3.017v6.347   c0,1.286,0.027,2.035,0.087,2.248c0.059,0.213,0.188,0.385,0.392,0.527c0.204,0.137,0.456,0.207,0.746,0.207   c0.413,0,1.004-0.136,1.782-0.4l0.376,3.23c-1.03,0.415-2.19,0.622-3.494,0.622c-0.795,0-1.514-0.126-2.153-0.374   c-0.639-0.253-1.105-0.582-1.407-0.982c-0.3-0.4-0.504-0.941-0.622-1.625c-0.091-0.481-0.139-1.462-0.139-2.936v-6.864h-2.029   V336.8h2.029v-3.133l4.434-2.43v5.563H79.009L79.009,336.8z M81.568,334.664v-3.857h4.419v3.857H81.568L81.568,334.664z    M81.568,352.548V336.8h4.419v15.748H81.568L81.568,352.548z M97.659,336.8v3.321h-3.016v6.347c0,1.286,0.027,2.035,0.086,2.248   c0.059,0.213,0.188,0.385,0.392,0.527c0.203,0.137,0.456,0.207,0.745,0.207c0.414,0,1.004-0.136,1.783-0.4l0.375,3.23   c-1.03,0.415-2.19,0.622-3.494,0.622c-0.794,0-1.513-0.126-2.152-0.374c-0.64-0.253-1.106-0.582-1.407-0.982   c-0.3-0.4-0.504-0.941-0.623-1.625c-0.091-0.481-0.139-1.462-0.139-2.936v-6.864H88.18V336.8h2.029v-3.133l4.434-2.43v5.563H97.659   L97.659,336.8z M111.212,352.548v-2.359c-0.613,0.84-1.412,1.503-2.399,1.989c-0.994,0.481-2.04,0.724-3.141,0.724   c-1.122,0-2.126-0.233-3.018-0.694c-0.891-0.466-1.534-1.118-1.937-1.959c-0.398-0.84-0.596-2.004-0.596-3.487V336.8h4.418v7.234   c0,2.217,0.08,3.574,0.247,4.075c0.161,0.496,0.456,0.891,0.886,1.184c0.428,0.294,0.977,0.435,1.637,0.435   c0.756,0,1.433-0.192,2.029-0.582c0.596-0.395,1.004-0.876,1.225-1.453c0.22-0.582,0.332-1.999,0.332-4.252V336.8h4.418v15.748   H111.212L111.212,352.548z M127.035,336.8v3.321h-3.016v6.347c0,1.286,0.027,2.035,0.086,2.248   c0.059,0.213,0.188,0.385,0.392,0.527c0.204,0.137,0.456,0.207,0.746,0.207c0.414,0,1.004-0.136,1.782-0.4l0.375,3.23   c-1.03,0.415-2.19,0.622-3.493,0.622c-0.795,0-1.514-0.126-2.153-0.374c-0.64-0.253-1.106-0.582-1.407-0.982   c-0.3-0.4-0.504-0.941-0.623-1.625c-0.091-0.481-0.139-1.462-0.139-2.936v-6.864h-2.029V336.8h2.029v-3.133l4.434-2.43v5.563   H127.035L127.035,336.8z M128.568,344.449c0-1.382,0.365-2.724,1.085-4.019c0.725-1.291,1.75-2.283,3.076-2.961   c1.326-0.684,2.807-1.028,4.446-1.028c2.523,0,4.595,0.775,6.211,2.324c1.615,1.548,2.421,3.503,2.421,5.866   c0,2.38-0.815,4.353-2.442,5.923c-1.632,1.569-3.683,2.349-6.158,2.349c-1.535,0-2.991-0.324-4.381-0.977   c-1.39-0.653-2.448-1.609-3.172-2.87C128.934,347.794,128.568,346.261,128.568,344.449L128.568,344.449z M133.099,344.672   c0,1.564,0.392,2.759,1.181,3.589c0.784,0.831,1.756,1.245,2.91,1.245c1.155,0,2.121-0.415,2.899-1.245   c0.784-0.83,1.176-2.035,1.176-3.619c0-1.538-0.392-2.728-1.176-3.558c-0.779-0.83-1.745-1.245-2.899-1.245   c-1.154,0-2.126,0.415-2.91,1.245C133.491,341.913,133.099,343.113,133.099,344.672L133.099,344.672z M167.375,347.536l4.407,0.694   c-0.568,1.524-1.46,2.683-2.684,3.478c-1.219,0.8-2.749,1.194-4.585,1.194c-2.904,0-5.051-0.891-6.447-2.683   c-1.101-1.432-1.653-3.244-1.653-5.426c0-2.612,0.724-4.657,2.173-6.135c1.445-1.478,3.275-2.217,5.487-2.217   c2.485,0,4.445,0.775,5.883,2.324c1.434,1.548,2.12,3.917,2.061,7.112h-11.074c0.032,1.235,0.386,2.197,1.068,2.881   c0.682,0.688,1.535,1.032,2.55,1.032c0.692,0,1.272-0.177,1.745-0.531C166.778,348.898,167.138,348.326,167.375,347.536   L167.375,347.536z M167.626,343.325c-0.032-1.21-0.359-2.126-0.988-2.754c-0.628-0.627-1.396-0.941-2.297-0.941   c-0.967,0-1.761,0.334-2.39,0.997c-0.628,0.658-0.939,1.559-0.928,2.698H167.626L167.626,343.325z M173.55,348.053l4.435-0.638   c0.188,0.81,0.569,1.427,1.149,1.848c0.575,0.42,1.38,0.632,2.421,0.632c1.144,0,2.002-0.197,2.576-0.597   c0.392-0.273,0.586-0.648,0.586-1.108c0-0.319-0.107-0.583-0.317-0.79c-0.22-0.198-0.715-0.38-1.476-0.547   c-3.565-0.739-5.825-1.418-6.78-2.03c-1.321-0.851-1.981-2.035-1.981-3.549c0-1.362,0.569-2.51,1.712-3.437   c1.143-0.932,2.915-1.397,5.315-1.397c2.287,0,3.989,0.354,5.1,1.053c1.111,0.703,1.873,1.741,2.292,3.117l-4.166,0.724   c-0.177-0.613-0.515-1.083-1.015-1.407c-0.498-0.329-1.207-0.491-2.131-0.491c-1.165,0-1.997,0.152-2.501,0.461   c-0.333,0.217-0.5,0.501-0.5,0.845c0,0.298,0.145,0.547,0.44,0.754c0.397,0.278,1.772,0.668,4.128,1.174   c2.351,0.501,3.995,1.119,4.928,1.853c0.923,0.744,1.385,1.776,1.385,3.098c0,1.442-0.639,2.688-1.922,3.726   c-1.278,1.038-3.168,1.554-5.674,1.554c-2.276,0-4.075-0.435-5.406-1.305C174.822,350.73,173.958,349.546,173.55,348.053   L173.55,348.053z M200.164,336.8v3.321h-3.017v6.347c0,1.286,0.027,2.035,0.086,2.248c0.059,0.213,0.188,0.385,0.392,0.527   c0.203,0.137,0.456,0.207,0.746,0.207c0.414,0,1.004-0.136,1.782-0.4l0.376,3.23c-1.031,0.415-2.19,0.622-3.494,0.622   c-0.795,0-1.514-0.126-2.153-0.374c-0.639-0.253-1.106-0.582-1.407-0.982c-0.3-0.4-0.504-0.941-0.623-1.625   c-0.091-0.481-0.139-1.462-0.139-2.936v-6.864h-2.029V336.8h2.029v-3.133l4.434-2.43v5.563H200.164L200.164,336.8z    M206.023,341.603l-4.01-0.683c0.451-1.524,1.223-2.647,2.325-3.381c1.105-0.729,2.738-1.099,4.906-1.099   c1.976,0,3.442,0.223,4.407,0.664c0.961,0.44,1.643,0.997,2.035,1.675c0.392,0.678,0.591,1.919,0.591,3.731l-0.049,4.865   c0,1.382,0.07,2.405,0.214,3.063c0.14,0.653,0.408,1.361,0.795,2.111h-4.375c-0.114-0.278-0.258-0.688-0.424-1.23   c-0.07-0.248-0.125-0.411-0.156-0.491c-0.757,0.693-1.562,1.21-2.421,1.559c-0.859,0.344-1.777,0.516-2.754,0.516   c-1.718,0-3.076-0.44-4.064-1.316c-0.993-0.88-1.487-1.994-1.487-3.34c0-0.886,0.226-1.681,0.676-2.38   c0.452-0.698,1.084-1.23,1.895-1.599c0.811-0.37,1.987-0.694,3.517-0.972c2.061-0.364,3.495-0.709,4.288-1.023v-0.414   c0-0.805-0.209-1.372-0.627-1.716c-0.419-0.34-1.208-0.511-2.373-0.511c-0.789,0-1.402,0.147-1.841,0.44   C206.651,340.358,206.297,340.87,206.023,341.603L206.023,341.603z M211.934,344.986c-0.563,0.177-1.459,0.389-2.689,0.637   c-1.224,0.248-2.024,0.491-2.405,0.724c-0.574,0.39-0.865,0.876-0.865,1.468c0,0.588,0.232,1.088,0.694,1.514   c0.462,0.425,1.047,0.638,1.76,0.638c0.801,0,1.557-0.248,2.281-0.739c0.537-0.374,0.886-0.835,1.053-1.381   c0.118-0.355,0.171-1.034,0.171-2.03V344.986L211.934,344.986z M235.44,352.548h-4.101v-2.313   c-0.681,0.901-1.486,1.569-2.416,2.009c-0.928,0.441-1.862,0.658-2.807,0.658c-1.922,0-3.565-0.728-4.933-2.186   c-1.364-1.458-2.051-3.493-2.051-6.1c0-2.673,0.667-4.703,1.998-6.09c1.331-1.387,3.016-2.086,5.052-2.086   c1.862,0,3.478,0.734,4.842,2.197v-7.831h4.418V352.548L235.44,352.548z M223.646,344.332c0,1.68,0.247,2.896,0.74,3.649   c0.709,1.084,1.707,1.63,2.985,1.63c1.02,0,1.884-0.41,2.598-1.225c0.709-0.815,1.068-2.035,1.068-3.655   c0-1.806-0.349-3.113-1.035-3.908c-0.692-0.794-1.579-1.194-2.663-1.194c-1.047,0-1.922,0.395-2.63,1.179   C224,341.593,223.646,342.768,223.646,344.332L223.646,344.332z M250.28,352.548v-2.359c-0.612,0.84-1.411,1.503-2.399,1.989   c-0.993,0.481-2.039,0.724-3.14,0.724c-1.122,0-2.126-0.233-3.018-0.694c-0.891-0.466-1.534-1.118-1.937-1.959   c-0.398-0.84-0.596-2.004-0.596-3.487V336.8h4.419v7.234c0,2.217,0.08,3.574,0.247,4.075c0.161,0.496,0.456,0.891,0.886,1.184   c0.429,0.294,0.977,0.435,1.636,0.435c0.757,0,1.434-0.192,2.03-0.582c0.596-0.395,1.004-0.876,1.224-1.453   c0.22-0.582,0.333-1.999,0.333-4.252V336.8h4.418v15.748H250.28L250.28,352.548z M261.751,341.603l-4.01-0.683   c0.451-1.524,1.223-2.647,2.324-3.381c1.106-0.729,2.739-1.099,4.907-1.099c1.975,0,3.442,0.223,4.408,0.664   c0.961,0.44,1.642,0.997,2.035,1.675c0.391,0.678,0.591,1.919,0.591,3.731l-0.049,4.865c0,1.382,0.07,2.405,0.214,3.063   c0.14,0.653,0.408,1.361,0.795,2.111h-4.375c-0.113-0.278-0.258-0.688-0.425-1.23c-0.07-0.248-0.124-0.411-0.156-0.491   c-0.757,0.693-1.562,1.21-2.421,1.559c-0.858,0.344-1.776,0.516-2.754,0.516c-1.718,0-3.076-0.44-4.063-1.316   c-0.993-0.88-1.487-1.994-1.487-3.34c0-0.886,0.226-1.681,0.676-2.38c0.451-0.698,1.084-1.23,1.896-1.599   c0.811-0.37,1.987-0.694,3.517-0.972c2.061-0.364,3.495-0.709,4.288-1.023v-0.414c0-0.805-0.209-1.372-0.627-1.716   c-0.419-0.34-1.208-0.511-2.373-0.511c-0.79,0-1.402,0.147-1.841,0.44C262.378,340.358,262.024,340.87,261.751,341.603   L261.751,341.603z M267.661,344.986c-0.563,0.177-1.46,0.389-2.689,0.637c-1.224,0.248-2.024,0.491-2.405,0.724   c-0.574,0.39-0.865,0.876-0.865,1.468c0,0.588,0.231,1.088,0.693,1.514c0.462,0.425,1.047,0.638,1.76,0.638   c0.8,0,1.558-0.248,2.282-0.739c0.537-0.374,0.885-0.835,1.052-1.381c0.118-0.355,0.172-1.034,0.172-2.03V344.986L267.661,344.986z    M275.851,352.548v-21.741h4.418v21.741H275.851L275.851,352.548z M308.553,352.548h-4.101v-2.313   c-0.681,0.901-1.486,1.569-2.416,2.009c-0.928,0.441-1.862,0.658-2.807,0.658c-1.922,0-3.565-0.728-4.933-2.186   c-1.364-1.458-2.051-3.493-2.051-6.1c0-2.673,0.667-4.703,1.998-6.09c1.331-1.387,3.016-2.086,5.052-2.086   c1.862,0,3.478,0.734,4.842,2.197v-7.831h4.418V352.548L308.553,352.548z M296.759,344.332c0,1.68,0.247,2.896,0.74,3.649   c0.709,1.084,1.707,1.63,2.985,1.63c1.02,0,1.884-0.41,2.598-1.225c0.709-0.815,1.068-2.035,1.068-3.655   c0-1.806-0.349-3.113-1.036-3.908c-0.692-0.794-1.579-1.194-2.663-1.194c-1.047,0-1.922,0.395-2.63,1.179   C297.113,341.593,296.759,342.768,296.759,344.332L296.759,344.332z M311.374,344.449c0-1.382,0.365-2.724,1.084-4.019   c0.725-1.291,1.751-2.283,3.076-2.961c1.326-0.684,2.808-1.028,4.445-1.028c2.524,0,4.596,0.775,6.212,2.324   c1.616,1.548,2.42,3.503,2.42,5.866c0,2.38-0.815,4.353-2.442,5.923c-1.631,1.569-3.683,2.349-6.157,2.349   c-1.536,0-2.991-0.324-4.381-0.977c-1.39-0.653-2.447-1.609-3.173-2.87C311.739,347.794,311.374,346.261,311.374,344.449   L311.374,344.449z M315.905,344.672c0,1.564,0.392,2.759,1.181,3.589c0.783,0.831,1.755,1.245,2.91,1.245   c1.155,0,2.121-0.415,2.899-1.245c0.783-0.83,1.175-2.035,1.175-3.619c0-1.538-0.392-2.728-1.175-3.558   c-0.779-0.83-1.745-1.245-2.899-1.245c-1.155,0-2.126,0.415-2.91,1.245C316.297,341.913,315.905,343.113,315.905,344.672   L315.905,344.672z M343.813,341.603l-4.01-0.683c0.452-1.524,1.224-2.647,2.325-3.381c1.106-0.729,2.738-1.099,4.906-1.099   c1.976,0,3.442,0.223,4.408,0.664c0.961,0.44,1.643,0.997,2.035,1.675c0.391,0.678,0.59,1.919,0.59,3.731l-0.048,4.865   c0,1.382,0.07,2.405,0.214,3.063c0.141,0.653,0.409,1.361,0.795,2.111h-4.375c-0.113-0.278-0.258-0.688-0.424-1.23   c-0.07-0.248-0.124-0.411-0.156-0.491c-0.756,0.693-1.562,1.21-2.421,1.559c-0.859,0.344-1.776,0.516-2.755,0.516   c-1.717,0-3.076-0.44-4.063-1.316c-0.994-0.88-1.487-1.994-1.487-3.34c0-0.886,0.225-1.681,0.676-2.38   c0.451-0.698,1.084-1.23,1.896-1.599c0.81-0.37,1.986-0.694,3.516-0.972c2.061-0.364,3.495-0.709,4.289-1.023v-0.414   c0-0.805-0.21-1.372-0.628-1.716c-0.419-0.34-1.208-0.511-2.373-0.511c-0.789,0-1.401,0.147-1.841,0.44   C344.441,340.358,344.087,340.87,343.813,341.603L343.813,341.603z M349.724,344.986c-0.564,0.177-1.46,0.389-2.69,0.637   c-1.223,0.248-2.023,0.491-2.405,0.724c-0.575,0.39-0.865,0.876-0.865,1.468c0,0.588,0.231,1.088,0.693,1.514   c0.462,0.425,1.046,0.638,1.76,0.638c0.801,0,1.558-0.248,2.282-0.739c0.537-0.374,0.886-0.835,1.053-1.381   c0.118-0.355,0.172-1.034,0.172-2.03V344.986L349.724,344.986z M357.58,336.8h4.075v2.146c1.456-1.671,3.194-2.506,5.208-2.506   c1.067,0,1.997,0.208,2.78,0.623c0.789,0.415,1.434,1.043,1.938,1.883c0.73-0.84,1.524-1.468,2.373-1.883   c0.848-0.414,1.755-0.623,2.722-0.623c1.224,0,2.265,0.238,3.115,0.709c0.847,0.466,1.481,1.159,1.9,2.065   c0.306,0.674,0.456,1.762,0.456,3.265v10.068h-4.419v-9c0-1.564-0.15-2.571-0.456-3.027c-0.408-0.593-1.036-0.891-1.885-0.891   c-0.623,0-1.203,0.177-1.749,0.537c-0.542,0.354-0.934,0.876-1.176,1.564c-0.241,0.688-0.365,1.772-0.365,3.255v7.562h-4.418   v-8.631c0-1.534-0.081-2.521-0.237-2.966c-0.156-0.446-0.402-0.774-0.731-0.992c-0.332-0.217-0.778-0.329-1.346-0.329   c-0.682,0-1.295,0.172-1.837,0.521c-0.547,0.344-0.939,0.845-1.175,1.498c-0.237,0.654-0.354,1.732-0.354,3.245v7.653h-4.419V336.8   L357.58,336.8z M385.853,352.548v-21.741h4.419v7.831c1.363-1.463,2.974-2.197,4.842-2.197c2.035,0,3.716,0.699,5.051,2.086   c1.333,1.387,1.998,3.381,1.998,5.983c0,2.688-0.682,4.763-2.04,6.217c-1.358,1.452-3.006,2.176-4.944,2.176   c-0.955,0-1.896-0.223-2.824-0.673c-0.929-0.451-1.728-1.114-2.4-1.994v2.313H385.853L385.853,352.548z M390.239,344.332   c0,1.63,0.274,2.835,0.816,3.619c0.768,1.108,1.783,1.66,3.054,1.66c0.972,0,1.805-0.395,2.491-1.179   c0.688-0.785,1.031-2.025,1.031-3.716c0-1.797-0.348-3.098-1.042-3.893c-0.687-0.794-1.573-1.194-2.657-1.194   c-1.057,0-1.937,0.39-2.641,1.164C390.589,341.573,390.239,342.748,390.239,344.332L390.239,344.332z M405.203,334.664v-3.857   h4.418v3.857H405.203L405.203,334.664z M405.203,352.548V336.8h4.418v15.748H405.203L405.203,352.548z M423.309,347.536   l4.408,0.694c-0.569,1.524-1.46,2.683-2.684,3.478c-1.219,0.8-2.749,1.194-4.586,1.194c-2.904,0-5.052-0.891-6.448-2.683   c-1.1-1.432-1.653-3.244-1.653-5.426c0-2.612,0.725-4.657,2.174-6.135c1.444-1.478,3.275-2.217,5.487-2.217   c2.485,0,4.445,0.775,5.883,2.324c1.434,1.548,2.12,3.917,2.061,7.112h-11.074c0.032,1.235,0.386,2.197,1.068,2.881   c0.681,0.688,1.535,1.032,2.55,1.032c0.692,0,1.272-0.177,1.745-0.531C422.712,348.898,423.073,348.326,423.309,347.536   L423.309,347.536z M423.561,343.325c-0.032-1.21-0.359-2.126-0.988-2.754c-0.628-0.627-1.396-0.941-2.297-0.941   c-0.967,0-1.761,0.334-2.39,0.997c-0.628,0.658-0.939,1.559-0.928,2.698H423.561L423.561,343.325z M446.234,352.548h-4.419v-8.039   c0-1.701-0.097-2.799-0.285-3.3c-0.188-0.496-0.498-0.886-0.923-1.165c-0.424-0.273-0.934-0.414-1.53-0.414   c-0.767,0-1.455,0.197-2.061,0.592c-0.607,0.4-1.025,0.921-1.25,1.574c-0.226,0.653-0.339,1.858-0.339,3.619v7.132h-4.417V336.8   h4.1v2.313c1.46-1.782,3.297-2.673,5.509-2.673c0.971,0,1.868,0.167,2.673,0.497c0.806,0.334,1.418,0.754,1.83,1.271   c0.414,0.516,0.703,1.098,0.865,1.751c0.167,0.653,0.247,1.585,0.247,2.8V352.548L446.234,352.548z M457.859,336.8v3.321h-3.016   v6.347c0,1.286,0.027,2.035,0.086,2.248c0.059,0.213,0.188,0.385,0.392,0.527c0.203,0.137,0.456,0.207,0.745,0.207   c0.414,0,1.004-0.136,1.783-0.4l0.375,3.23c-1.03,0.415-2.19,0.622-3.494,0.622c-0.794,0-1.513-0.126-2.152-0.374   c-0.64-0.253-1.106-0.582-1.407-0.982c-0.3-0.4-0.504-0.941-0.623-1.625c-0.091-0.481-0.139-1.462-0.139-2.936v-6.864h-2.029V336.8   h2.029v-3.133l4.434-2.43v5.563H457.859L457.859,336.8z M470.087,347.536l4.407,0.694c-0.569,1.524-1.46,2.683-2.684,3.478   c-1.219,0.8-2.749,1.194-4.585,1.194c-2.905,0-5.052-0.891-6.448-2.683c-1.1-1.432-1.653-3.244-1.653-5.426   c0-2.612,0.724-4.657,2.173-6.135c1.445-1.478,3.275-2.217,5.487-2.217c2.486,0,4.445,0.775,5.883,2.324   c1.434,1.548,2.121,3.917,2.061,7.112h-11.074c0.032,1.235,0.387,2.197,1.068,2.881c0.681,0.688,1.535,1.032,2.55,1.032   c0.692,0,1.272-0.177,1.745-0.531C469.49,348.898,469.85,348.326,470.087,347.536L470.087,347.536z M470.338,343.325   c-0.032-1.21-0.359-2.126-0.988-2.754c-0.628-0.627-1.396-0.941-2.297-0.941c-0.966,0-1.761,0.334-2.389,0.997   c-0.629,0.658-0.94,1.559-0.929,2.698H470.338z"/>
</g>
</svg>